<?xml version="1.0" encoding="utf-8"?>
<!-- Generator: Adobe Illustrator 25.2.1, SVG Export Plug-In . SVG Version: 6.00 Build 0)  -->
<svg version="1.1" id="Camada_1" xmlns="http://www.w3.org/2000/svg" xmlns:xlink="http://www.w3.org/1999/xlink" x="0px" y="0px"
	 viewBox="0 0 1000 1000" style="enable-background:new 0 0 1000 1000;" xml:space="preserve">
<style type="text/css">
	.st0{fill:#FFFFFF;}
</style>
<g>
	<g transform="matrix(1 0 0 -1 0 1638)">
		<path class="st0" d="M982.2,1156.9l-318,317.5c-5.2,5.2-11.4,7.8-18.6,7.8s-13.4-2.6-18.6-7.8c-5.2-5.2-7.8-11.4-7.8-18.6
			s2.6-13.4,7.8-18.6l272.5-272.5H36.9c-7.6,0-14-2.6-19.1-7.8s-7.8-11.5-7.8-19.1c0-7.2,2.6-13.4,7.8-18.6s11.5-7.8,19.1-7.8h862.6
			L627,838.8c-5.2-5.2-7.8-11.4-7.8-18.6s2.6-13.4,7.8-18.6c2.4-2.8,5.3-4.7,8.5-5.9c3.3-1.2,6.6-1.8,10.1-1.8s6.8,0.6,10.1,1.8
			s6.1,3.2,8.5,5.9l318,317.5c5.2,5.2,7.8,11.5,7.8,18.9C990,1145.4,987.4,1151.7,982.2,1156.9L982.2,1156.9z"/>
	</g>
</g>
</svg>
