<?xml version="1.0" encoding="utf-8"?>
<!-- Generator: Adobe Illustrator 25.2.1, SVG Export Plug-In . SVG Version: 6.00 Build 0)  -->
<svg version="1.1" id="Camada_1" xmlns="http://www.w3.org/2000/svg" xmlns:xlink="http://www.w3.org/1999/xlink" x="0px" y="0px"
	 viewBox="0 0 1000 1000" style="enable-background:new 0 0 1000 1000;" xml:space="preserve">
<style type="text/css">
	.st0{fill:#FFFFFF;}
</style>
<g>
	<g transform="matrix(1 0 0 -1 0 1638)">
		<path class="st0" d="M17.8,1156.9l318,317.5c5.2,5.2,11.4,7.8,18.6,7.8s13.4-2.6,18.6-7.8c5.2-5.2,7.8-11.4,7.8-18.6
			s-2.6-13.4-7.8-18.6l-272.5-272.5h862.6c7.6,0,14-2.6,19.1-7.8c5.2-5.2,7.8-11.5,7.8-19.1c0-7.2-2.6-13.4-7.8-18.6
			s-11.6-7.8-19.1-7.8H100.5L373,838.8c5.2-5.2,7.8-11.4,7.8-18.6s-2.6-13.4-7.8-18.6c-2.4-2.8-5.3-4.7-8.5-5.9
			c-3.3-1.2-6.6-1.8-10.1-1.8c-3.4,0-6.8,0.6-10.1,1.8c-3.3,1.2-6.1,3.2-8.5,5.9l-318,317.5c-5.2,5.2-7.8,11.5-7.8,18.9
			C10,1145.4,12.6,1151.7,17.8,1156.9L17.8,1156.9z"/>
	</g>
</g>
</svg>
